HIERARCHY
ROOT pelvis
{
  OFFSET 0 100 0
  CHANNELS 6 Xposition Yposition Zposition Zrotation Xrotation Yrotation
  JOINT pelvis_right_femur
  {
    OFFSET -10.78128 -3.44521 -0.5502486
    CHANNELS 3 Zrotation Xrotation Yrotation
    JOINT right_femur_tibia
    {
      OFFSET -0.8047443 -44.0398 -0.1307829
      CHANNELS 3 Zrotation Xrotation Yrotation
      JOINT right_tibia_foot
      {
        OFFSET 3.006224 -47.83518 -5
        CHANNELS 3 Zrotation Xrotation Yrotation
        End Site
        {
          OFFSET 0 -5 15
        }
      }
    }
  }
  JOINT pelvis_left_femur
  {
    OFFSET 10.78128 -3.44521 -0.5502486
    CHANNELS 3 Zrotation Xrotation Yrotation
    JOINT left_femur_tibia
    {
      OFFSET 0.8047443 -44.0398 -0.1307829
      CHANNELS 3 Zrotation Xrotation Yrotation
      JOINT left_tibia_foot
      {
        OFFSET -4.370144 -48.10324 -4.275266
        CHANNELS 3 Zrotation Xrotation Yrotation
        End Site
        {
          OFFSET 0 -5 15
        }
      }
    }
  }
  JOINT pelvis_spine1
  {
    OFFSET 0 6.468898 -3.129235
    CHANNELS 3 Zrotation Xrotation Yrotation
    JOINT spine1
    {
      OFFSET 0 23.15396 4.99043
      CHANNELS 3 Zrotation Xrotation Yrotation
      JOINT spine2
      {
        OFFSET 0 20.79997 -5.064912
        CHANNELS 3 Zrotation Xrotation Yrotation
        JOINT neck
        {
          OFFSET 0 14.38658 9.616178
          CHANNELS 3 Zrotation Xrotation Yrotation
          End Site
          {
            OFFSET 0 20 0
          }
        }
      }
      JOINT right_manubrium
      {
        OFFSET -5.722621 16.35077 3.967754
        CHANNELS 3 Zrotation Xrotation Yrotation
        JOINT right_clavicle
        {
          OFFSET -13.16364 1.694482 -4.693211
          CHANNELS 3 Zrotation Xrotation Yrotation
          JOINT right_humerus
          {
            OFFSET -28.5034 -0.3100689 -2.792744
            CHANNELS 3 Zrotation Xrotation Yrotation
            JOINT right_radius
            {
              OFFSET -25.15693 0.02248979 -1.271978
              CHANNELS 3 Zrotation Xrotation Yrotation
              End Site
              {
                OFFSET -15 0 0
              }
            }
          }
        }
      }
      JOINT left_manubrium
      {
        OFFSET 5.722621 16.35077 3.967754
        CHANNELS 3 Zrotation Xrotation Yrotation
        JOINT left_clavicle
        {
          OFFSET 13.16364 1.694482 -4.693211
          CHANNELS 3 Zrotation Xrotation Yrotation
          JOINT left_humerus
          {
            OFFSET 29.39168 -1.063119 -2.237045
            CHANNELS 3 Zrotation Xrotation Yrotation
            JOINT left_radius
            {
              OFFSET 24.59957 -0.9528479 0.9047498
              CHANNELS 3 Zrotation Xrotation Yrotation
              End Site
              {
                OFFSET 15 -0 -0
              }
            }
          }
        }
      }
    }
  }
}
MOTION
Frames: 19
Frame Time: 0.0416666666667
694.3399 101.7775 -757.0723 3.514129 -0.6408722 -84.21766 2.556106 -36.33051 -10.47174 0 -3.348562 0 -6.705169 3.340436 1.917071 -8.071788 22.5896 -4.10963 -0 14.42755 -0 9.262231 -21.65521 9.406287 -2.565106 -7.194211 4.087597 3.91814 11.49449 -11.97405 -1.805699 21.21282 8.38345 2.407991 -24.62559 6.686423 0.635949 -18.84768 13.05283 96.76674 25.81526 -34.50546 0 0 -1.225818 -24.53436 17.07913 10.20095 5.364047 -31.76301 -8.759977 -77.9801 16.69468 8.511989 0 0 -51.41079 13.34186 17.48701 -0.7448189
687.13 101.781 -756.4617 3.520112 -0.6071101 -83.66832 2.556106 -36.33051 -10.47174 0 -3.348562 0 -6.705169 3.340436 1.917071 -8.071788 22.5896 -4.10963 -0 14.42755 -0 9.262231 -21.65521 9.406287 -2.565106 -7.194211 4.087597 3.91814 11.49449 -11.97405 -1.805699 21.21282 8.38345 2.407991 -24.62559 6.686423 0.635949 -18.84768 13.05283 96.76674 25.81526 -34.50546 0 0 -1.225818 -24.53436 17.07913 10.20095 5.364047 -31.76301 -8.759977 -77.9801 16.69468 8.511989 0 0 -51.41079 13.34186 17.48701 -0.7448189
679.9263 101.7845 -755.7819 3.52577 -0.5732921 -83.11898 2.556106 -36.33051 -10.47174 0 -3.348562 0 -6.705169 3.340436 1.917071 -8.071788 22.5896 -4.10963 -0 14.42755 -0 9.262231 -21.65521 9.406287 -2.565106 -7.194211 4.087597 3.91814 11.49449 -11.97405 -1.805699 21.21282 8.38345 2.407991 -24.62559 6.686423 0.635949 -18.84768 13.05283 96.76674 25.81526 -34.50546 0 0 -1.225818 -24.53436 17.07913 10.20095 5.364047 -31.76301 -8.759977 -77.9801 16.69468 8.511989 0 0 -51.41079 13.34186 17.48701 -0.7448189
672.7294 101.7879 -755.0329 3.531104 -0.5394215 -82.56966 2.556106 -36.33051 -10.47174 0 -3.348562 0 -6.705169 3.340436 1.917071 -8.071788 22.5896 -4.10963 -0 14.42755 -0 9.262231 -21.65521 9.406287 -2.565106 -7.194211 4.087597 3.91814 11.49449 -11.97405 -1.805699 21.21282 8.38345 2.407991 -24.62559 6.686423 0.635949 -18.84768 13.05283 96.76674 25.81526 -34.50546 0 0 -1.225818 -24.53436 17.07913 10.20095 5.364047 -31.76301 -8.759977 -77.9801 16.69468 8.511989 0 0 -51.41079 13.34186 17.48701 -0.7448189
665.5401 101.7914 -754.2149 3.536113 -0.5055013 -82.02034 2.556106 -36.33051 -10.47174 0 -3.348562 0 -6.705169 3.340436 1.917071 -8.071788 22.5896 -4.10963 -0 14.42755 -0 9.262231 -21.65521 9.406287 -2.565106 -7.194211 4.087597 3.91814 11.49449 -11.97405 -1.805699 21.21282 8.38345 2.407991 -24.62559 6.686423 0.635949 -18.84768 13.05283 96.76674 25.81526 -34.50546 0 0 -1.225818 -24.53436 17.07913 10.20095 5.364047 -31.76301 -8.759977 -77.9801 16.69468 8.511989 0 0 -51.41079 13.34186 17.48701 -0.7448189
658.359 101.7949 -753.3278 3.540797 -0.4715346 -81.47102 2.556106 -36.33051 -10.47174 0 -3.348562 0 -6.705169 3.340436 1.917071 -8.071788 22.5896 -4.10963 -0 14.42755 -0 9.262231 -21.65521 9.406287 -2.565106 -7.194211 4.087597 3.91814 11.49449 -11.97405 -1.805699 21.21282 8.38345 2.407991 -24.62559 6.686423 0.635949 -18.84768 13.05283 96.76674 25.81526 -34.50546 0 0 -1.225818 -24.53436 17.07913 10.20095 5.364047 -31.76301 -8.759977 -77.9801 16.69468 8.511989 0 0 -51.41079 13.34186 17.48701 -0.7448189
651.1867 101.7984 -752.3718 3.545155 -0.4375245 -80.92171 2.556106 -36.33051 -10.47174 0 -3.348562 0 -6.705169 3.340436 1.917071 -8.071788 22.5896 -4.10963 -0 14.42755 -0 9.262231 -21.65521 9.406287 -2.565106 -7.194211 4.087597 3.91814 11.49449 -11.97405 -1.805699 21.21282 8.38345 2.407991 -24.62559 6.686423 0.635949 -18.84768 13.05283 96.76674 25.81526 -34.50546 0 0 -1.225818 -24.53436 17.07913 10.20095 5.364047 -31.76301 -8.759977 -77.9801 16.69468 8.511989 0 0 -51.41079 13.34186 17.48701 -0.7448189
644.024 101.8018 -751.3469 3.549186 -0.4034743 -80.37241 2.556106 -36.33051 -10.47174 0 -3.348562 0 -6.705169 3.340436 1.917071 -8.071788 22.5896 -4.10963 -0 14.42755 -0 9.262231 -21.65521 9.406287 -2.565106 -7.194211 4.087597 3.91814 11.49449 -11.97405 -1.805699 21.21282 8.38345 2.407991 -24.62559 6.686423 0.635949 -18.84768 13.05283 96.76674 25.81526 -34.50546 0 0 -1.225818 -24.53436 17.07913 10.20095 5.364047 -31.76301 -8.759977 -77.9801 16.69468 8.511989 0 0 -51.41079 13.34186 17.48701 -0.7448189
636.8714 101.8053 -750.2533 3.552891 -0.369387 -79.8231 2.556106 -36.33051 -10.47174 0 -3.348562 0 -6.705169 3.340436 1.917071 -8.071788 22.5896 -4.10963 -0 14.42755 -0 9.262231 -21.65521 9.406287 -2.565106 -7.194211 4.087597 3.91814 11.49449 -11.97405 -1.805699 21.21282 8.38345 2.407991 -24.62559 6.686423 0.635949 -18.84768 13.05283 96.76674 25.81526 -34.50546 0 0 -1.225818 -24.53436 17.07913 10.20095 5.364047 -31.76301 -8.759977 -77.9801 16.69468 8.511989 0 0 -51.41079 13.34186 17.48701 -0.7448189
629.7297 101.8088 -749.0911 3.556269 -0.3352657 -79.27381 2.556106 -36.33051 -10.47174 0 -3.348562 0 -6.705169 3.340436 1.917071 -8.071788 22.5896 -4.10963 -0 14.42755 -0 9.262231 -21.65521 9.406287 -2.565106 -7.194211 4.087597 3.91814 11.49449 -11.97405 -1.805699 21.21282 8.38345 2.407991 -24.62559 6.686423 0.635949 -18.84768 13.05283 96.76674 25.81526 -34.50546 0 0 -1.225818 -24.53436 17.07913 10.20095 5.364047 -31.76301 -8.759977 -77.9801 16.69468 8.511989 0 0 -51.41079 13.34186 17.48701 -0.7448189
622.5994 101.8123 -747.8603 3.559319 -0.3011137 -78.72452 2.556106 -36.33051 -10.47174 0 -3.348562 0 -6.705169 3.340436 1.917071 -8.071788 22.5896 -4.10963 -0 14.42755 -0 9.262231 -21.65521 9.406287 -2.565106 -7.194211 4.087597 3.91814 11.49449 -11.97405 -1.805699 21.21282 8.38345 2.407991 -24.62559 6.686423 0.635949 -18.84768 13.05283 96.76674 25.81526 -34.50546 0 0 -1.225818 -24.53436 17.07913 10.20095 5.364047 -31.76301 -8.759977 -77.9801 16.69468 8.511989 0 0 -51.41079 13.34186 17.48701 -0.7448189
615.4813 101.8157 -746.561 3.562042 -0.2669339 -78.17523 2.556106 -36.33051 -10.47174 0 -3.348562 0 -6.705169 3.340436 1.917071 -8.071788 22.5896 -4.10963 -0 14.42755 -0 9.262231 -21.65521 9.406287 -2.565106 -7.194211 4.087597 3.91814 11.49449 -11.97405 -1.805699 21.21282 8.38345 2.407991 -24.62559 6.686423 0.635949 -18.84768 13.05283 96.76674 25.81526 -34.50546 0 0 -1.225818 -24.53436 17.07913 10.20095 5.364047 -31.76301 -8.759977 -77.9801 16.69468 8.511989 0 0 -51.41079 13.34186 17.48701 -0.7448189
608.376 101.8192 -745.1935 3.564437 -0.2327296 -77.62594 2.556106 -36.33051 -10.47174 0 -3.348562 0 -6.705169 3.340436 1.917071 -8.071788 22.5896 -4.10963 -0 14.42755 -0 9.262231 -21.65521 9.406287 -2.565106 -7.194211 4.087597 3.91814 11.49449 -11.97405 -1.805699 21.21282 8.38345 2.407991 -24.62559 6.686423 0.635949 -18.84768 13.05283 96.76674 25.81526 -34.50546 0 0 -1.225818 -24.53436 17.07913 10.20095 5.364047 -31.76301 -8.759977 -77.9801 16.69468 8.511989 0 0 -51.41079 13.34186 17.48701 -0.7448189
601.2842 101.8227 -743.7578 3.566504 -0.1985039 -77.07666 2.556106 -36.33051 -10.47174 0 -3.348562 0 -6.705169 3.340436 1.917071 -8.071788 22.5896 -4.10963 -0 14.42755 -0 9.262231 -21.65521 9.406287 -2.565106 -7.194211 4.087597 3.91814 11.49449 -11.97405 -1.805699 21.21282 8.38345 2.407991 -24.62559 6.686423 0.635949 -18.84768 13.05283 96.76674 25.81526 -34.50546 0 0 -1.225818 -24.53436 17.07913 10.20095 5.364047 -31.76301 -8.759977 -77.9801 16.69468 8.511989 0 0 -51.41079 13.34186 17.48701 -0.7448189
594.2065 101.8262 -742.254 3.568243 -0.16426 -76.52738 2.556106 -36.33051 -10.47174 0 -3.348562 0 -6.705169 3.340436 1.917071 -8.071788 22.5896 -4.10963 -0 14.42755 -0 9.262231 -21.65521 9.406287 -2.565106 -7.194211 4.087597 3.91814 11.49449 -11.97405 -1.805699 21.21282 8.38345 2.407991 -24.62559 6.686423 0.635949 -18.84768 13.05283 96.76674 25.81526 -34.50546 0 0 -1.225818 -24.53436 17.07913 10.20095 5.364047 -31.76301 -8.759977 -77.9801 16.69468 8.511989 0 0 -51.41079 13.34186 17.48701 -0.7448189
587.1435 101.8296 -740.6823 3.569653 -0.130001 -75.9781 2.556106 -36.33051 -10.47174 0 -3.348562 0 -6.705169 3.340436 1.917071 -8.071788 22.5896 -4.10963 -0 14.42755 -0 9.262231 -21.65521 9.406287 -2.565106 -7.194211 4.087597 3.91814 11.49449 -11.97405 -1.805699 21.21282 8.38345 2.407991 -24.62559 6.686423 0.635949 -18.84768 13.05283 96.76674 25.81526 -34.50546 0 0 -1.225818 -24.53436 17.07913 10.20095 5.364047 -31.76301 -8.759977 -77.9801 16.69468 8.511989 0 0 -51.41079 13.34186 17.48701 -0.7448189
580.096 101.8331 -739.0428 3.570736 -0.09573003 -75.42882 2.556106 -36.33051 -10.47174 0 -3.348562 0 -6.705169 3.340436 1.917071 -8.071788 22.5896 -4.10963 -0 14.42755 -0 9.262231 -21.65521 9.406287 -2.565106 -7.194211 4.087597 3.91814 11.49449 -11.97405 -1.805699 21.21282 8.38345 2.407991 -24.62559 6.686423 0.635949 -18.84768 13.05283 96.76674 25.81526 -34.50546 0 0 -1.225818 -24.53436 17.07913 10.20095 5.364047 -31.76301 -8.759977 -77.9801 16.69468 8.511989 0 0 -51.41079 13.34186 17.48701 -0.7448189
573.0645 101.8366 -737.3357 3.571489 -0.06145027 -74.87954 2.556106 -36.33051 -10.47174 0 -3.348562 0 -6.705169 3.340436 1.917071 -8.071788 22.5896 -4.10963 -0 14.42755 -0 9.262231 -21.65521 9.406287 -2.565106 -7.194211 4.087597 3.91814 11.49449 -11.97405 -1.805699 21.21282 8.38345 2.407991 -24.62559 6.686423 0.635949 -18.84768 13.05283 96.76674 25.81526 -34.50546 0 0 -1.225818 -24.53436 17.07913 10.20095 5.364047 -31.76301 -8.759977 -77.9801 16.69468 8.511989 0 0 -51.41079 13.34186 17.48701 -0.7448189
566.0498 101.8401 -735.5612 3.571914 -0.02716486 -74.33027 2.556106 -36.33051 -10.47174 0 -3.348562 0 -6.705169 3.340436 1.917071 -8.071788 22.5896 -4.10963 -0 14.42755 -0 9.262231 -21.65521 9.406287 -2.565106 -7.194211 4.087597 3.91814 11.49449 -11.97405 -1.805699 21.21282 8.38345 2.407991 -24.62559 6.686423 0.635949 -18.84768 13.05283 96.76674 25.81526 -34.50546 0 0 -1.225818 -24.53436 17.07913 10.20095 5.364047 -31.76301 -8.759977 -77.9801 16.69468 8.511989 0 0 -51.41079 13.34186 17.48701 -0.7448189
